<svg width="512" height="512" viewBox="0 0 512 512" fill="none" xmlns="http://www.w3.org/2000/svg">
<g clip-path="url(#clip0_16_4)">
<path fill-rule="evenodd" clip-rule="evenodd" d="M256 512C397.385 512 512 397.385 512 256C512 114.615 397.385 0 256 0C114.615 0 0 114.615 0 256C0 397.385 114.615 512 256 512ZM297.923 112.07C288.163 112.085 278.385 112.1 268.562 112.25C268.328 143.655 268.338 175.06 268.348 206.496C268.353 225.359 268.359 244.233 268.312 263.125C268.28 269.014 268.29 274.895 268.3 280.771C268.329 297.221 268.358 313.639 267.437 330.125C267.32 334.715 264.986 338.751 262.731 342.65C262.591 342.892 262.451 343.134 262.312 343.375C255.062 355.25 241.687 363.375 227.687 363.5C206.687 365.375 186.937 348.125 183.937 327.625C183.918 326.577 183.884 325.522 183.849 324.465C183.661 318.716 183.47 312.885 185.687 307.5C188.812 298.625 194.812 290.75 202.687 285.625C213.562 278.125 228.062 277 240.437 281C240.437 273.071 240.575 265.143 240.713 257.214C240.897 246.643 241.08 236.071 240.937 225.5C213.812 220.375 184.812 229 164.062 247C145.812 262.5 134.062 285.25 131.812 309C131.562 315.125 131.687 321.375 131.937 327.625C134.562 356.875 152.312 384.125 177.562 399C192.812 408 210.687 412.875 228.562 411.875C257.687 411.375 286.062 395.75 302.437 371.75C312.562 357.375 318.312 340 319.312 322.5C319.547 299.766 319.537 276.984 319.527 254.183C319.521 240.501 319.516 226.813 319.562 213.125C326.062 217.375 332.687 221.5 339.812 224.75C356.187 232.5 374.312 236.25 392.312 236.875V186.5C373.062 184.375 353.312 178 339.312 164.125C325.312 150.625 318.437 131.125 317.437 112C310.935 112.05 304.434 112.06 297.923 112.07Z" fill="black"/>
</g>
<defs>
<clipPath id="clip0_16_4">
<rect width="512" height="512" fill="white"/>
</clipPath>
</defs>
</svg>
