<svg width="512" height="512" viewBox="0 0 512 512" fill="none" xmlns="http://www.w3.org/2000/svg">
<g clip-path="url(#clip0_12_55)">
<path fill-rule="evenodd" clip-rule="evenodd" d="M256 512C397.385 512 512 397.385 512 256C512 114.615 397.385 0 256 0C114.615 0 0 114.615 0 256C0 397.385 114.615 512 256 512ZM126.441 105.975C118.747 102.574 110.685 101.356 102.254 102.319C92.6922 107.051 89.2234 114.738 91.8477 125.382C94.2817 131.751 96.7192 138.126 99.1602 144.507C102.674 154.809 104.268 165.403 103.941 176.288C103.593 186.985 103.03 197.673 102.254 208.35C102.158 218.177 103.939 227.646 107.598 236.757C121.185 263.631 143.029 278.912 173.129 282.6C188.273 284.846 203.46 286.721 218.691 288.225C221.164 288.636 222.758 290.042 223.473 292.444C224.311 299.476 221.218 302.194 214.191 300.6C200.786 298.33 187.286 297.111 173.691 296.944C147.212 296.166 126.868 306.854 112.66 329.007C102.301 348.156 101.926 367.469 111.535 386.944C117.812 398.662 127.28 406.444 139.941 410.288C147.067 410.663 154.191 410.663 161.316 410.288C168.099 408.582 174.474 405.957 180.441 402.413C191.667 395.503 201.324 386.784 209.41 376.257C246.428 325.156 252.053 270.593 226.285 212.569C215.04 188.736 200.603 167.173 182.973 147.882C166.652 130.573 147.808 116.604 126.441 105.975ZM419.785 159.694C421.483 143.298 414.077 135.986 397.566 137.757C392.972 139.135 388.472 140.916 384.066 143.1C332.469 171.073 296.001 212.417 274.66 267.132C264.058 295.035 259.37 323.911 260.598 353.757C261.083 371.728 267.083 387.478 278.598 401.007C282.819 405.319 287.788 408.413 293.504 410.288C300.629 410.663 307.754 410.663 314.879 410.288C320.493 408.415 325.555 405.602 330.066 401.85C347.173 384.891 351.954 364.922 344.41 341.944C333.702 318.716 315.421 307.373 289.566 307.913C286.383 307.353 284.227 305.572 283.098 302.569C282.193 296.91 284.63 294.285 290.41 294.694C301.987 296.313 313.612 297.438 325.285 298.069C363.002 297.276 386.627 278.714 396.16 242.382C397.584 232.681 398.522 222.931 398.973 213.132C399.986 203.561 402.424 194.373 406.285 185.569C410.57 176.844 415.07 168.219 419.785 159.694ZM233.316 155.757C236.431 155.524 239.431 155.993 242.316 157.163L245.309 159.585L248.223 161.944C256.497 171.734 263.059 182.609 267.91 194.569C275.14 181.897 284.609 171.116 296.316 162.225C303.894 158.637 309.801 160.419 314.035 167.569C315.896 178.282 311.303 183.813 300.254 184.163C290.289 192.361 282.696 202.392 277.473 214.257C275.07 221.241 273.195 228.366 271.848 235.632C269.207 241.382 264.989 243.163 259.191 240.975C257.164 239.452 255.758 237.483 254.973 235.069C256.161 216.005 251.473 198.568 240.91 182.757L238.379 180.225C227.085 178.143 223.054 171.674 226.285 160.819C228.339 158.63 230.683 156.943 233.316 155.757Z" fill="black"/>
</g>
<defs>
<clipPath id="clip0_12_55">
<rect width="512" height="512" fill="white"/>
</clipPath>
</defs>
</svg>
