<svg width="512" height="512" viewBox="0 0 512 512" fill="none" xmlns="http://www.w3.org/2000/svg">
<g clip-path="url(#clip0_17_14)">
<path fill-rule="evenodd" clip-rule="evenodd" d="M256 512C397.385 512 512 397.385 512 256C512 114.615 397.385 0 256 0C114.615 0 0 114.615 0 256C0 397.385 114.615 512 256 512ZM424.881 143.306C430.747 149.21 434.958 156.552 437.094 164.596C445 194.269 445 256.166 445 256.166C445 256.166 445 318.064 437.109 347.737C434.975 355.781 430.764 363.124 424.899 369.028C419.033 374.933 411.718 379.192 403.688 381.379C374.204 389.333 256 389.333 256 389.333C256 389.333 137.796 389.333 108.328 381.379C100.298 379.19 92.9845 374.931 87.1189 369.027C81.2534 363.122 77.042 355.781 74.9065 347.737C67 318.064 67 256.166 67 256.166C67 256.166 67 194.269 74.9065 164.596C77.0421 156.554 81.2516 149.215 87.114 143.311C92.9764 137.407 100.286 133.146 108.312 130.954C137.796 123 256 123 256 123C256 123 374.204 123 403.672 130.954C411.702 133.142 419.016 137.402 424.881 143.306ZM316.134 256.166L217.334 199.97V312.362L316.134 256.166Z" fill="black"/>
</g>
<defs>
<clipPath id="clip0_17_14">
<rect width="512" height="512" fill="white"/>
</clipPath>
</defs>
</svg>
